<svg width="64" height="64" viewBox="0 0 64 64" xmlns="http://www.w3.org/2000/svg">
  <rect width="64" height="64" rx="16" fill="#7E62A6"/>
  <path
    d="M44.5 10.5C34.2 12 26.3 20.9 26.3 31.7c0 8.1 4.5 15.1 11.1 18.8-2.4.9-5 1.4-7.7 1.4C17.5 51.9 7.6 42 7.6 29.8S17.5 7.7 29.7 7.7c5.6 0 10.7 2.1 14.8 5.6Z"
    fill="#FFF6EE"
  />
  <g transform="translate(44 43)">
    <circle cx="0" cy="-9" r="7" fill="#F8D7E6"/>
    <circle cx="8" cy="-2" r="7" fill="#F8D7E6"/>
    <circle cx="5" cy="8" r="7" fill="#F8D7E6"/>
    <circle cx="-5" cy="8" r="7" fill="#F8D7E6"/>
    <circle cx="-8" cy="-2" r="7" fill="#F8D7E6"/>
    <circle cx="0" cy="0" r="5" fill="#E7CDA6"/>
  </g>
</svg>
